<?xml version="1.0" standalone="no"?>
<!DOCTYPE svg PUBLIC "-//W3C//DTD SVG 20010904//EN"
 "http://www.w3.org/TR/2001/REC-SVG-20010904/DTD/svg10.dtd">
<svg version="1.0" xmlns="http://www.w3.org/2000/svg"
 width="200.000000pt" height="200.000000pt" viewBox="0 0 200.000000 200.000000"
 preserveAspectRatio="xMidYMid meet">
<metadata>
Created by potrace 1.14, written by Peter Selinger 2001-2017
</metadata>
<g transform="translate(0.000000,200.000000) scale(0.100000,-0.100000)"
fill="#000000" stroke="none">
<path d="M1202 1866 c-38 -21 -44 -72 -12 -101 17 -15 20 -31 20 -96 0 -64 -6
-93 -31 -156 -17 -43 -32 -79 -33 -81 -11 -10 -52 19 -53 38 -4 49 -82 120
-133 120 -12 0 -24 9 -29 23 -30 77 -133 112 -211 72 -32 -16 -70 -61 -70 -81
0 -8 -9 -14 -20 -14 -61 0 -140 -72 -140 -127 0 -13 -3 -23 -7 -24 -56 -5
-105 -38 -129 -85 -25 -49 -24 -133 1 -444 2 -25 6 -88 10 -140 3 -52 8 -115
10 -140 2 -25 7 -83 10 -130 3 -47 8 -112 11 -145 2 -33 7 -89 9 -124 6 -81
12 -101 33 -102 85 -7 1153 -3 1175 4 59 19 65 80 22 212 -35 108 -46 209 -31
295 48 291 57 413 36 489 -11 42 -63 176 -94 243 -70 153 -86 207 -86 292 0
73 3 89 20 106 25 25 25 51 2 81 -18 21 -27 22 -141 23 -67 1 -130 -3 -139 -8z"/>
</g>
</svg>
